<?xml version="1.0" encoding="UTF-8" standalone="no"?>
<!-- Created with Inkscape (http://www.inkscape.org/) -->

<svg
   xmlns:dc="http://purl.org/dc/elements/1.1/"
   xmlns:cc="http://creativecommons.org/ns#"
   xmlns:rdf="http://www.w3.org/1999/02/22-rdf-syntax-ns#"
   xmlns:svg="http://www.w3.org/2000/svg"
   xmlns="http://www.w3.org/2000/svg"
   xmlns:sodipodi="http://sodipodi.sourceforge.net/DTD/sodipodi-0.dtd"
   xmlns:inkscape="http://www.inkscape.org/namespaces/inkscape"
   width="106.38673mm"
   height="113.0107mm"
   viewBox="0 0 106.38673 113.0107"
   version="1.1"
   id="svg8"
   sodipodi:docname="logo.svg"
   inkscape:version="0.92.5 (2060ec1f9f, 2020-04-08)">
  <defs
     id="defs2">
    <inkscape:perspective
       sodipodi:type="inkscape:persp3d"
       inkscape:vp_x="247.91323 : 215.12664 : 1"
       inkscape:vp_y="0 : 680.22234 : 0"
       inkscape:vp_z="417.86819 : 137.99428 : 1"
       inkscape:persp3d-origin="331.33318 : 104.32328 : 1"
       id="perspective29" />
  </defs>
  <sodipodi:namedview
     id="base"
     pagecolor="#ffffff"
     bordercolor="#666666"
     borderopacity="1.0"
     inkscape:pageopacity="0.0"
     inkscape:pageshadow="2"
     inkscape:zoom="0.49497475"
     inkscape:cx="633.06155"
     inkscape:cy="37.424358"
     inkscape:document-units="mm"
     inkscape:current-layer="layer1"
     showgrid="false"
     inkscape:window-width="1366"
     inkscape:window-height="699"
     inkscape:window-x="0"
     inkscape:window-y="33"
     inkscape:window-maximized="1" />
  <metadata
     id="metadata5">
    <rdf:RDF>
      <cc:Work
         rdf:about="">
        <dc:format>image/svg+xml</dc:format>
        <dc:type
           rdf:resource="http://purl.org/dc/dcmitype/StillImage" />
        <dc:title></dc:title>
      </cc:Work>
    </rdf:RDF>
  </metadata>
  <g
     inkscape:label="Camada 1"
     inkscape:groupmode="layer"
     id="layer1"
     transform="translate(-24.33761,-41.778432)">
    <path
       style="fill:#00ffff;stroke-width:0.67425108"
       d="M 24.33761,98.283775 V 41.778432 l 2.7831,0.224227 c 1.530705,0.123324 3.618029,0.406191 4.6385,0.628593 1.02047,0.222403 2.042947,0.376466 2.27217,0.342361 0.229224,-0.03411 1.732098,0.204621 3.339721,0.530498 1.607621,0.325877 3.924863,0.716796 5.149427,0.868707 1.224564,0.151911 3.89634,0.561962 5.937279,0.911224 2.040941,0.349263 4.463132,0.761246 5.382649,0.915519 0.919518,0.154273 2.422392,0.408393 3.33972,0.564711 0.917328,0.15632 2.836771,0.433462 4.265427,0.615873 1.42866,0.182411 4.267421,0.617415 6.308364,0.966678 2.040937,0.349263 4.463132,0.761246 5.38265,0.915518 0.919513,0.154273 2.422388,0.408394 3.339719,0.564713 0.917328,0.156318 3.003755,0.438268 4.636508,0.626553 1.632751,0.188287 3.803568,0.520453 4.82404,0.738148 1.893349,0.403906 2.411278,0.494272 6.308357,1.100674 1.224565,0.190547 2.894424,0.466863 3.710802,0.614034 0.816375,0.147172 2.820206,0.421638 4.452957,0.609924 1.63276,0.188287 3.80357,0.520453 4.82404,0.738148 1.89336,0.403905 2.41128,0.494272 6.30836,1.100675 1.22456,0.190548 2.89442,0.466862 3.71081,0.614036 0.81637,0.14717 2.8202,0.421637 4.45295,0.609922 1.63275,0.188286 3.80356,0.524305 4.82404,0.746708 2.38703,0.520231 3.02103,0.616074 4.82404,0.729257 1.46743,0.09212 1.48197,0.471335 1.27785,33.32447 l -0.20647,33.231287 -45.436365,12.825 c -24.990004,7.05376 -48.859579,13.84387 -53.043506,15.08912 l -7.607139,2.26412 z"
       id="path71-1"
       inkscape:connector-curvature="0" />
    <path
       style="fill:#000000;stroke-width:0.75595242"
       d="m 24.772799,133.46213 v -20.85575 l 5.102677,4.8291 c 17.223931,16.30049 28.106378,27.10183 27.603889,27.39816 -0.318225,0.18766 -6.701806,2.08022 -14.185733,4.20569 -7.48393,2.12547 -14.712722,4.18265 -16.063989,4.57152 l -2.456844,0.70702 z"
       id="path143"
       inkscape:connector-curvature="0" />
    <path
       style="fill:#000000;stroke-width:0.75595242"
       d="m 67.909087,112.5497 c -3.923999,-1.345 -7.254886,-2.80648 -7.40197,-3.24774 -0.351687,-1.05506 6.508305,-28.391641 7.336186,-29.234172 1.148702,-1.169035 16.649733,4.413517 16.649733,5.996249 0,1.534816 -1.714245,1.349674 -7.787524,-0.841081 -2.928533,-1.056381 -5.714331,-1.771139 -6.190663,-1.588355 -0.826371,0.317109 -3.089931,8.615535 -2.508618,9.196846 0.153355,0.153355 2.99013,1.275328 6.303946,2.493277 3.732577,1.371856 6.118121,2.681636 6.269538,3.442282 0.33115,1.663534 -0.915171,1.552414 -7.425965,-0.662046 -3.056064,-1.039434 -5.774875,-1.889882 -6.041805,-1.889882 -0.594815,0 -3.318576,11.302322 -2.83927,11.781622 0.188523,0.18853 3.199378,1.30238 6.690791,2.47523 4.175059,1.40251 6.431688,2.56197 6.59244,3.38721 0.344475,1.76841 -1.330683,1.54102 -9.646819,-1.30944 z"
       id="path153"
       inkscape:connector-curvature="0" />
    <path
       style="fill:#000000;stroke-width:0.75595242"
       d="m 107.43709,129.62331 c 0.18716,-0.70414 2.80823,-11.27718 5.8246,-23.49564 l 5.4843,-22.215383 -5.9799,-5.754854 C 92.483706,58.638374 85.394215,51.613888 85.976908,51.613888 c 1.787059,0 43.481292,6.915348 43.838252,7.270954 0.69346,0.690811 0.95097,32.958944 0.39792,49.861468 l -0.52133,15.93302 -6.15739,1.62847 c -3.38657,0.89567 -8.47043,2.29613 -11.29748,3.11212 -4.7203,1.36248 -5.11228,1.37909 -4.79979,0.20339 z"
       id="path159"
       inkscape:connector-curvature="0" />
    <path
       style="fill:#000000;stroke-width:0.75595242"
       d="m 24.839188,73.844333 -0.06639,-31.820151 7.370535,1.039198 c 4.053795,0.571559 16.385267,2.510542 27.403274,4.308854 18.907806,3.086052 19.862936,3.31866 17.008928,4.142292 -1.663095,0.479952 -11.528272,3.335034 -21.922619,6.344632 L 35.734108,63.331151 30.319844,84.497818 24.90558,105.66448 Z"
       id="path161"
       inkscape:connector-curvature="0" />
    <path
       style="fill:#00ffff;stroke-width:0.56600612"
       d="M 32.808333,95.321825 V 47.887906 l 2.336298,0.188229 c 1.284964,0.103525 3.037187,0.340981 3.89383,0.527678 0.856643,0.186698 1.71497,0.316028 1.907394,0.287398 0.192424,-0.02863 1.454025,0.171771 2.803558,0.445331 1.349532,0.273561 3.294762,0.601721 4.322733,0.729244 1.027971,0.127523 3.270817,0.471744 4.984102,0.764935 1.713286,0.293192 3.746616,0.639035 4.518513,0.768541 0.771898,0.129506 2.033498,0.342829 2.803557,0.474052 0.77006,0.131224 2.381354,0.363873 3.580653,0.517 1.1993,0.153126 3.582323,0.518294 5.29561,0.811486 1.713284,0.293192 3.746616,0.639035 4.518514,0.76854 0.771895,0.129506 2.033497,0.34283 2.803557,0.474053 0.770059,0.131223 2.521529,0.367908 3.892158,0.525966 1.370628,0.158059 3.192941,0.436899 4.049584,0.619645 1.58939,0.339062 2.024167,0.414921 5.295607,0.923971 1.027972,0.159956 2.429751,0.391912 3.115065,0.515456 0.685313,0.123545 2.367448,0.353948 3.738075,0.512006 1.37063,0.158059 3.192941,0.436899 4.049579,0.619645 1.5894,0.339062 2.02417,0.414921 5.29561,0.923971 1.02797,0.159957 2.42975,0.391912 3.11507,0.515458 0.68531,0.123543 2.36745,0.353947 3.73807,0.512005 1.37063,0.158058 3.19294,0.440132 4.04959,0.62683 2.00381,0.436713 2.53603,0.517169 4.04958,0.612182 1.23185,0.07733 1.24405,0.395666 1.0727,27.974524 l -0.17332,27.896308 -38.141961,10.76606 c -20.978081,5.92134 -41.01561,11.62136 -44.527845,12.6667 l -6.385881,1.90063 z"
       id="path71"
       inkscape:connector-curvature="0" />
    <path
       sodipodi:type="star"
       id="path47"
       sodipodi:sides="6"
       sodipodi:cx="132.00642"
       sodipodi:cy="89.982086"
       sodipodi:r1="41.190735"
       sodipodi:r2="20.595367"
       sodipodi:arg1="0.74645682"
       sodipodi:arg2="1.2700556"
       inkscape:flatsided="true"
       inkscape:rounded="0"
       inkscape:randomized="0"
       d="m 162.24452,117.95232 -39.34199,12.20184 -30.238091,-27.97023 9.103891,-40.172082 39.34198,-12.20184 30.2381,27.970239 z"
       inkscape:transform-center-x="-9.6630628e-06"
       style="stroke-width:0.26458332"
       transform="rotate(-58.868027,106.34417,145.41848)"
       inkscape:transform-center-y="-1.0833819e-05" />
    <flowRoot
       xml:space="preserve"
       id="flowRoot95"
       style="font-style:normal;font-weight:normal;font-size:40px;line-height:1.25;font-family:sans-serif;letter-spacing:0px;word-spacing:0px;fill:#000000;fill-opacity:1;stroke:none"
       transform="scale(0.26458333)"><flowRegion
         id="flowRegion97"><rect
           id="rect99"
           width="334.28571"
           height="168.57143"
           x="-508.57144"
           y="382.51968" /></flowRegion><flowPara
         id="flowPara101"></flowPara></flowRoot>    <text
       xml:space="preserve"
       style="font-style:normal;font-weight:normal;font-size:14.90518761px;line-height:1.25;font-family:sans-serif;letter-spacing:0px;word-spacing:0px;fill:#ffffff;fill-opacity:1;stroke:none;stroke-width:0.37262967"
       x="59.883011"
       y="76.191963"
       id="text105"
       transform="matrix(0.90863071,0.31144353,-0.26007852,1.0114122,0,0)"><tspan
         sodipodi:role="line"
         id="tspan103"
         x="59.883011"
         y="76.191963"
         style="font-style:normal;font-variant:normal;font-weight:normal;font-stretch:normal;font-size:35.77244949px;font-family:sans-serif;-inkscape-font-specification:'sans-serif, Normal';font-variant-ligatures:normal;font-variant-caps:normal;font-variant-numeric:normal;font-feature-settings:normal;text-align:start;writing-mode:lr-tb;text-anchor:start;fill:#ffffff;stroke-width:0.37262967">HEX</tspan></text>
    <path
       style="fill:#000000;stroke-width:2.85714293"
       d=""
       id="path155"
       inkscape:connector-curvature="0"
       transform="scale(0.26458333)" />
  </g>
</svg>
